<svg width="608" height="306" xmlns="http://www.w3.org/2000/svg" xmlns:xlink="http://www.w3.org/1999/xlink" xml:space="preserve" overflow="hidden"><defs><clipPath id="clip0"><rect x="-820" y="-24" width="608" height="306"/></clipPath><clipPath id="clip1"><rect x="-820" y="-24" width="608" height="306"/></clipPath><clipPath id="clip2"><rect x="-819" y="-24" width="606" height="306"/></clipPath><clipPath id="clip3"><rect x="-819" y="-24" width="606" height="306"/></clipPath><clipPath id="clip4"><rect x="-819" y="-24" width="817" height="306"/></clipPath><clipPath id="clip5"><rect x="-819" y="-24" width="817" height="306"/></clipPath><clipPath id="clip6"><rect x="-819" y="-24" width="817" height="306"/></clipPath><clipPath id="clip7"><rect x="-714" y="-22" width="494" height="171"/></clipPath><clipPath id="clip8"><rect x="-714" y="-22" width="494" height="171"/></clipPath><clipPath id="clip9"><rect x="-818" y="15" width="102" height="130"/></clipPath><clipPath id="clip10"><rect x="-818" y="15" width="102" height="130"/></clipPath><clipPath id="clip11"><rect x="-496" y="110" width="494" height="172"/></clipPath><clipPath id="clip12"><rect x="-496" y="110" width="494" height="172"/></clipPath><clipPath id="clip13"><rect x="-594" y="162" width="99" height="116"/></clipPath><clipPath id="clip14"><rect x="-594" y="162" width="99" height="116"/></clipPath></defs><g clip-path="url(#clip0)" transform="translate(820 24)"><g clip-path="url(#clip1)"><g clip-path="url(#clip2)"><g clip-path="url(#clip3)"><g clip-path="url(#clip4)"><g clip-path="url(#clip5)"><g clip-path="url(#clip6)"><g clip-path="url(#clip7)"><g clip-path="url(#clip8)"><path d="M160.149 0C145.042 0 132.824 12.2741 132.824 27.3813 132.824 42.4884 145.042 54.7057 160.149 54.7057 175.256 54.7057 187.53 42.4884 187.53 27.3813 187.53 12.2741 175.256 0 160.149 0ZM206.351 25.9072C201.185 26.1381 197.183 30.5141 197.414 35.6813 197.59 39.6394 200.238 43.058 204.028 44.2181 248.316 59.4484 279.392 95.4261 290.252 137.53L205.5 137.53C204.862 137.53 204.366 138.025 204.366 138.663L204.366 203.46C204.366 204.1 204.862 204.594 205.5 204.594L290.14 204.594C289.28 207.909 288.317 211.218 287.19 214.515L287.19 214.742C263.054 284.928 186.853 322.099 116.668 297.962 72.3682 282.728 41.2595 246.714 30.3858 204.594L115.194 204.594C115.833 204.594 116.327 204.1 116.327 203.46L116.327 138.663C116.327 138.025 115.833 137.53 115.194 137.53L30.4424 137.53C31.3195 134.152 32.2929 130.795 33.4471 127.439 46.5474 89.3436 76.1014 59.0275 113.89 45.0686 118.956 44.0226 122.214 39.0684 121.168 34.0029 120.122 28.9373 115.168 25.6788 110.102 26.7248 109.165 26.9183 108.263 27.2545 107.427 27.7213 64.7186 43.4977 31.0866 77.4967 15.9865 120.41L15.6464 121.43C13.8093 126.772 12.3292 132.141 11.1112 137.53L1.1338 137.53C0.494583 137.53 0 138.025 0 138.663L0 203.46C0 204.1 0.494583 204.594 1.1338 204.594L11.1112 204.594C22.4458 254.635 58.6718 297.884 110.659 315.762 190.417 343.191 277.565 300.509 304.992 220.751 306.835 215.389 308.364 210.001 309.583 204.594L319.56 204.594C320.201 204.594 320.694 204.1 320.694 203.46L320.694 138.663C320.694 138.025 320.201 137.53 319.56 137.53L309.471 137.53C298.118 87.517 261.944 44.2872 209.979 26.4175 208.815 26.0102 207.583 25.8368 206.351 25.9072ZM120.636 130.217C119.997 130.217 119.446 130.711 119.446 131.35L119.446 210.774C119.446 211.413 119.997 211.964 120.636 211.964L200.058 211.964C200.699 211.964 201.192 211.413 201.192 210.774L201.192 131.35C201.192 130.711 200.699 130.217 200.058 130.217L120.636 130.217Z" fill="#000000" fill-rule="nonzero" fill-opacity="0.7" transform="matrix(1.00195 0 0 1 -1211.29 -21.614)"/><path d="M598.842 1449C614.638 1449 626.325 1452.29 626.325 1471.05 626.325 1489.81 614.638 1493.11 598.842 1493.11L569.546 1493.11 569.546 1449 598.842 1449M546.67 1426.29C542.556 1426.29 539.263 1429.59 539.263 1433.86L539.263 1533.92C539.263 1538.03 542.719 1541.49 546.834 1541.49L561.976 1541.49C566.253 1541.49 569.546 1538.03 569.546 1533.92L569.546 1515.82 608.052 1515.82C638.661 1515.82 656.606 1502 656.606 1471.05 656.606 1440.12 638.661 1426.29 608.052 1426.29L546.67 1426.29" fill="#000000" fill-rule="nonzero" fill-opacity="0.7" transform="matrix(1.00195 0 0 1 -1374.9 -1410.7)"/><path d="M664.295 1479.78C664.295 1511.75 729.588 1503.73 729.588 1518.04 729.588 1522.36 726.378 1524.95 718.975 1524.95L697.869 1524.95C691.695 1524.95 687.006 1522.98 685.031 1518.78 683.057 1514.71 680.342 1513.1 676.882 1513.1L669.724 1513.1C668.119 1513.1 663.555 1514.21 663.555 1519.77 663.555 1532.97 680.217 1541.98 695.769 1541.98L714.036 1541.98C743.66 1541.98 752.298 1531.62 752.298 1516.81 752.298 1484.59 687.006 1492.86 687.006 1478.55 687.006 1474.23 690.215 1471.63 697.619 1471.63L715.766 1471.63C721.934 1471.63 726.623 1473.61 728.603 1477.81 730.572 1481.87 733.292 1483.48 736.746 1483.48L743.905 1483.48C745.51 1483.48 750.079 1482.37 750.079 1476.82 750.079 1463.61 733.412 1454.6 717.859 1454.6L702.558 1454.6C672.933 1454.6 664.295 1464.97 664.295 1479.78" fill="#000000" fill-rule="nonzero" fill-opacity="0.7" transform="matrix(1.00195 0 0 1 -1374.9 -1410.7)"/><path d="M839.842 1455.09 770.356 1455.09C767.272 1455.09 764.677 1457.56 764.677 1460.65L764.677 1535.69C764.677 1538.9 767.147 1541.49 770.356 1541.49L839.598 1541.49C842.807 1541.49 845.277 1538.9 845.277 1535.81L845.277 1530.01C845.277 1526.93 842.807 1524.46 839.723 1524.46L787.388 1524.46 787.388 1506.68 832.564 1506.68C835.648 1506.68 838.243 1504.1 838.243 1501.01L838.243 1495.33C838.243 1492.24 835.648 1489.65 832.564 1489.65L787.388 1489.65 787.388 1472.13 839.842 1472.13C842.932 1472.13 845.521 1469.66 845.521 1466.45L845.521 1460.77C845.521 1457.56 842.932 1455.09 839.842 1455.09" fill="#000000" fill-rule="nonzero" fill-opacity="0.7" transform="matrix(1.00195 0 0 1 -1374.9 -1410.7)"/><path d="M893.926 1524.95C882.937 1524.95 878.004 1519.28 878.004 1507.42L878.004 1460.77C878.004 1457.56 875.409 1455.09 872.324 1455.09L861.091 1455.09C857.882 1455.09 855.293 1457.56 855.293 1460.77L855.293 1507.31C855.293 1529.15 868.131 1541.98 893.305 1541.98L904.168 1541.98C929.349 1541.98 942.187 1529.15 942.187 1507.31L942.187 1460.77C942.187 1457.56 939.592 1455.09 936.382 1455.09L925.155 1455.09C922.065 1455.09 919.476 1457.56 919.476 1460.77L919.476 1507.42C919.476 1519.28 914.536 1524.95 903.554 1524.95L893.926 1524.95" fill="#000000" fill-rule="nonzero" fill-opacity="0.7" transform="matrix(1.00195 0 0 1 -1374.9 -1410.7)"/><path d="M963.937 1455.09C960.727 1455.09 958.258 1457.68 958.258 1460.89L958.258 1535.94C958.258 1539.02 960.853 1541.49 963.937 1541.49L997.63 1541.49C1032.81 1541.49 1047.62 1527.79 1047.62 1498.29 1047.62 1468.79 1032.81 1455.09 997.63 1455.09L963.937 1455.09M997.016 1472.13C1019.11 1472.13 1024.91 1479.78 1024.91 1498.29 1024.91 1516.81 1019.11 1524.46 997.016 1524.46L980.968 1524.46 980.968 1472.13 997.016 1472.13" fill="#000000" fill-rule="nonzero" fill-opacity="0.7" transform="matrix(1.00195 0 0 1 -1374.9 -1410.7)"/><path d="M1103.56 1469.53C1122.08 1469.53 1129.35 1479.78 1129.35 1498.29 1129.35 1516.81 1122.08 1527.05 1103.56 1527.05 1085.04 1527.05 1077.76 1516.81 1077.76 1498.29 1077.76 1479.78 1085.04 1469.53 1103.56 1469.53M1055.05 1498.29C1055.05 1530.39 1072.7 1543.34 1103.56 1543.34 1134.42 1543.34 1152.07 1530.39 1152.07 1498.29 1152.07 1466.2 1134.42 1453.24 1103.56 1453.24 1072.7 1453.24 1055.05 1466.2 1055.05 1498.29" fill="#000000" fill-rule="nonzero" fill-opacity="0.7" transform="matrix(1.00195 0 0 1 -1374.9 -1410.7)"/><path d="M1075.58 1426.08C1072.78 1426.08 1070.65 1428.23 1070.65 1431.02L1070.65 1440.57C1070.65 1443.37 1072.78 1445.5 1075.58 1445.5L1131.54 1445.5C1134.34 1445.5 1136.47 1443.37 1136.47 1440.57L1136.47 1431.02C1136.47 1428.23 1134.34 1426.08 1131.54 1426.08L1075.58 1426.08" fill="#000000" fill-rule="nonzero" fill-opacity="0.7" transform="matrix(1.00195 0 0 1 -1374.9 -1410.7)"/><path d="M546.834 1578.08C542.556 1578.08 539.263 1581.54 539.263 1585.82L539.263 1685.88C539.263 1689.99 542.719 1693.28 546.834 1693.28L591.763 1693.28C638.661 1693.28 658.413 1675.01 658.413 1635.68 658.413 1596.35 638.661 1578.08 591.763 1578.08L546.834 1578.08M590.939 1600.79C620.401 1600.79 628.132 1611 628.132 1635.68 628.132 1660.37 620.401 1670.57 590.939 1670.57L569.546 1670.57 569.546 1600.79 590.939 1600.79" fill="#000000" fill-rule="nonzero" fill-opacity="0.7" transform="matrix(1.00195 0 0 1 -1374.9 -1410.7)"/><path d="M715.599 1621.32C734.11 1621.32 741.393 1631.57 741.393 1650.08 741.393 1668.59 734.11 1678.84 715.599 1678.84 697.082 1678.84 689.798 1668.59 689.798 1650.08 689.798 1631.57 697.082 1621.32 715.599 1621.32M667.087 1650.08C667.087 1682.17 684.739 1695.14 715.599 1695.14 746.452 1695.14 764.104 1682.17 764.104 1650.08 764.104 1617.99 746.452 1605.03 715.599 1605.03 684.739 1605.03 667.087 1617.99 667.087 1650.08" fill="#000000" fill-rule="nonzero" fill-opacity="0.7" transform="matrix(1.00195 0 0 1 -1374.9 -1410.7)"/><path d="M788.014 1693.28C810.85 1693.28 826.026 1682.05 826.026 1661.07L826.026 1612.56C826.026 1609.35 823.437 1606.88 820.228 1606.88L808.995 1606.88C805.91 1606.88 803.315 1609.35 803.315 1612.56L803.315 1661.19C803.315 1672.17 798.501 1676.25 787.393 1676.25L783.074 1676.25C779.495 1676.25 776.286 1675.14 772.957 1675.14L770.976 1675.14C767.773 1675.14 765.303 1677.61 765.303 1680.82L765.303 1687.6C765.303 1690.69 767.773 1693.28 770.976 1693.28L788.014 1693.28" fill="#000000" fill-rule="nonzero" fill-opacity="0.7" transform="matrix(1.00195 0 0 1 -1374.9 -1410.7)"/><path d="M885.735 1621.32C904.246 1621.32 911.53 1631.57 911.53 1650.08 911.53 1668.59 904.246 1678.84 885.735 1678.84 867.218 1678.84 859.94 1668.59 859.94 1650.08 859.94 1631.57 867.218 1621.32 885.735 1621.32M837.229 1650.08C837.229 1682.17 854.881 1695.14 885.735 1695.14 916.594 1695.14 934.24 1682.17 934.24 1650.08 934.24 1617.99 916.594 1605.03 885.735 1605.03 854.881 1605.03 837.229 1617.99 837.229 1650.08" fill="#000000" fill-rule="nonzero" fill-opacity="0.7" transform="matrix(1.00195 0 0 1 -1374.9 -1410.7)"/><path d="M687.62 1577.87C684.823 1577.87 682.681 1580.01 682.681 1582.81L682.681 1592.36C682.681 1595.15 684.823 1597.29 687.62 1597.29L743.577 1597.29C746.369 1597.29 748.51 1595.15 748.51 1592.36L748.51 1582.81C748.51 1580.01 746.369 1577.87 743.577 1577.87L687.62 1577.87" fill="#000000" fill-rule="nonzero" fill-opacity="0.7" transform="matrix(1.00195 0 0 1 -1374.9 -1410.7)"/><path d="M857.757 1577.87C854.959 1577.87 852.823 1580.01 852.823 1582.81L852.823 1592.36C852.823 1595.15 854.959 1597.29 857.757 1597.29L913.713 1597.29C916.511 1597.29 918.647 1595.15 918.647 1592.36L918.647 1582.81C918.647 1580.01 916.511 1577.87 913.713 1577.87L857.757 1577.87" fill="#000000" fill-rule="nonzero" fill-opacity="0.7" transform="matrix(1.00195 0 0 1 -1374.9 -1410.7)"/></g></g><g clip-path="url(#clip9)"><g clip-path="url(#clip10)"><path d="M121.239 0C109.802 0 100.554 9.29196 100.554 20.7287 100.554 32.1654 109.802 41.4143 121.239 41.4143 132.676 41.4143 141.968 32.1654 141.968 20.7287 141.968 9.29196 132.676 0 121.239 0ZM156.216 19.6128C152.304 19.7876 149.275 23.1003 149.45 27.0121 149.583 30.0086 151.588 32.5966 154.457 33.4748 187.985 45.0047 211.51 72.2411 219.732 104.115L155.572 104.115C155.088 104.115 154.714 104.49 154.714 104.974L154.714 154.027C154.714 154.512 155.088 154.885 155.572 154.885L219.647 154.885C218.996 157.396 218.267 159.901 217.414 162.396L217.414 162.568C199.142 215.701 141.456 243.841 88.3219 225.569 54.7856 214.036 31.2351 186.772 23.0032 154.885L87.2064 154.885C87.6902 154.885 88.0648 154.512 88.0648 154.027L88.0648 104.974C88.0648 104.49 87.6902 104.115 87.2064 104.115L23.0461 104.115C23.71 101.559 24.447 99.0169 25.3207 96.4759 35.2382 67.6367 57.6116 44.6861 86.2192 34.1186 90.0541 33.3268 92.5206 29.5762 91.729 25.7415 90.9369 21.9066 87.1867 19.4398 83.3519 20.2317 82.6421 20.3782 81.9591 20.6327 81.3268 20.9861 48.9947 32.9295 23.5337 58.6681 12.1024 91.1546L11.8449 91.9271C10.4541 95.9713 9.33372 100.036 8.4116 104.115L0.858327 104.115C0.374418 104.115 0 104.49 0 104.974L0 154.027C0 154.512 0.374418 154.885 0.858327 154.885L8.4116 154.885C16.9923 192.768 44.4168 225.51 83.773 239.044 144.153 259.809 210.127 227.497 230.89 167.117 232.286 163.058 233.443 158.979 234.366 154.885L241.92 154.885C242.404 154.885 242.778 154.512 242.778 154.027L242.778 104.974C242.778 104.49 242.404 104.115 241.92 104.115L234.281 104.115C225.687 66.2541 198.302 33.5272 158.963 19.999 158.081 19.6908 157.149 19.5595 156.216 19.6128ZM91.3264 98.5791C90.842 98.5791 90.4251 98.9537 90.4251 99.4375L90.4251 159.564C90.4251 160.048 90.842 160.465 91.3264 160.465L151.452 160.465C151.936 160.465 152.31 160.048 152.31 159.564L152.31 99.4375C152.31 98.9537 151.936 98.5791 151.452 98.5791L91.3264 98.5791Z" fill="#000000" fill-rule="nonzero" fill-opacity="0.7" transform="matrix(1.00515 0 0 1 -1095.34 15.9649)"/><path d="M453.345 1096.95C465.305 1096.95 474.15 1099.44 474.15 1113.64 474.15 1127.85 465.305 1130.34 453.345 1130.34L431.168 1130.34 431.168 1096.95 453.345 1096.95M413.85 1079.76C410.736 1079.76 408.243 1082.25 408.243 1085.49L408.243 1161.24C408.243 1164.35 410.86 1166.97 413.974 1166.97L425.437 1166.97C428.676 1166.97 431.168 1164.35 431.168 1161.24L431.168 1147.54 460.321 1147.54C483.493 1147.54 497.074 1137.07 497.074 1113.64 497.074 1090.22 483.493 1079.76 460.321 1079.76L413.85 1079.76" fill="#000000" fill-rule="nonzero" fill-opacity="0.7" transform="matrix(1.00515 0 0 1 -1219.6 -1035.63)"/><path d="M502.896 1120.25C502.896 1144.45 552.326 1138.37 552.326 1149.22 552.326 1152.49 549.896 1154.45 544.29 1154.45L528.312 1154.45C523.64 1154.45 520.09 1152.95 518.594 1149.78 517.099 1146.69 515.044 1145.48 512.427 1145.48L507.007 1145.48C505.794 1145.48 502.335 1146.32 502.335 1150.52 502.335 1160.52 514.951 1167.35 526.723 1167.35L540.552 1167.35C562.979 1167.35 569.518 1159.5 569.518 1148.28 569.518 1123.89 520.09 1130.15 520.09 1119.32 520.09 1116.05 522.519 1114.08 528.125 1114.08L541.861 1114.08C546.533 1114.08 550.083 1115.58 551.579 1118.76 553.073 1121.84 555.129 1123.06 557.745 1123.06L563.165 1123.06C564.38 1123.06 567.838 1122.21 567.838 1118.01 567.838 1108.01 555.222 1101.19 543.449 1101.19L531.863 1101.19C509.437 1101.19 502.896 1109.04 502.896 1120.25" fill="#000000" fill-rule="nonzero" fill-opacity="0.7" transform="matrix(1.00515 0 0 1 -1219.6 -1035.63)"/><path d="M635.794 1101.56 583.188 1101.56C580.852 1101.56 578.89 1103.43 578.89 1105.76L578.89 1162.58C578.89 1165.01 580.759 1166.97 583.188 1166.97L635.609 1166.97C638.037 1166.97 639.91 1165.01 639.91 1162.67L639.91 1158.28C639.91 1155.94 638.037 1154.07 635.705 1154.07L596.084 1154.07 596.084 1140.62 630.282 1140.62C632.621 1140.62 634.583 1138.65 634.583 1136.32L634.583 1132.02C634.583 1129.69 632.621 1127.73 630.282 1127.73L596.084 1127.73 596.084 1114.45 635.794 1114.45C638.132 1114.45 640.095 1112.59 640.095 1110.16L640.095 1105.86C640.095 1103.43 638.132 1101.56 635.794 1101.56" fill="#000000" fill-rule="nonzero" fill-opacity="0.7" transform="matrix(1.00515 0 0 1 -1219.6 -1035.63)"/><path d="M676.737 1154.45C668.416 1154.45 664.682 1150.15 664.682 1141.18L664.682 1105.86C664.682 1103.43 662.72 1101.56 660.381 1101.56L651.881 1101.56C649.448 1101.56 647.491 1103.43 647.491 1105.86L647.491 1141.09C647.491 1157.62 657.208 1167.35 676.266 1167.35L684.492 1167.35C703.549 1167.35 713.272 1157.62 713.272 1141.09L713.272 1105.86C713.272 1103.43 711.31 1101.56 708.876 1101.56L700.376 1101.56C698.038 1101.56 696.075 1103.43 696.075 1105.86L696.075 1141.18C696.075 1150.15 692.341 1154.45 684.026 1154.45L676.737 1154.45" fill="#000000" fill-rule="nonzero" fill-opacity="0.7" transform="matrix(1.00515 0 0 1 -1219.6 -1035.63)"/><path d="M729.735 1101.56C727.308 1101.56 725.441 1103.52 725.441 1105.95L725.441 1162.76C725.441 1165.1 727.403 1166.97 729.735 1166.97L755.247 1166.97C781.875 1166.97 793.089 1156.6 793.089 1134.26 793.089 1111.93 781.875 1101.56 755.247 1101.56L729.735 1101.56M754.776 1114.45C771.502 1114.45 775.898 1120.25 775.898 1134.26 775.898 1148.28 771.502 1154.07 754.776 1154.07L742.632 1154.07 742.632 1114.45 754.776 1114.45" fill="#000000" fill-rule="nonzero" fill-opacity="0.7" transform="matrix(1.00515 0 0 1 -1219.6 -1035.63)"/><path d="M835.44 1112.49C849.451 1112.49 854.969 1120.25 854.969 1134.26 854.969 1148.28 849.451 1156.04 835.44 1156.04 821.422 1156.04 815.911 1148.28 815.911 1134.26 815.911 1120.25 821.422 1112.49 835.44 1112.49M798.714 1134.26C798.714 1158.56 812.075 1168.37 835.44 1168.37 858.798 1168.37 872.16 1158.56 872.16 1134.26 872.16 1109.97 858.798 1100.16 835.44 1100.16 812.075 1100.16 798.714 1109.97 798.714 1134.26" fill="#000000" fill-rule="nonzero" fill-opacity="0.7" transform="matrix(1.00515 0 0 1 -1219.6 -1035.63)"/><path d="M814.258 1079.6C812.141 1079.6 810.518 1081.22 810.518 1083.34L810.518 1090.56C810.518 1092.68 812.141 1094.3 814.258 1094.3L856.615 1094.3C858.733 1094.3 860.355 1092.68 860.355 1090.56L860.355 1083.34C860.355 1081.22 858.733 1079.6 856.615 1079.6L814.258 1079.6" fill="#000000" fill-rule="nonzero" fill-opacity="0.7" transform="matrix(1.00515 0 0 1 -1219.6 -1035.63)"/><path d="M413.974 1194.67C410.736 1194.67 408.243 1197.28 408.243 1200.52L408.243 1276.28C408.243 1279.39 410.86 1281.88 413.974 1281.88L447.988 1281.88C483.493 1281.88 498.445 1268.05 498.445 1238.27 498.445 1208.5 483.493 1194.67 447.988 1194.67L413.974 1194.67M447.364 1211.86C469.665 1211.86 475.52 1219.59 475.52 1238.27 475.52 1256.96 469.665 1264.69 447.364 1264.69L431.168 1264.69 431.168 1211.86 447.364 1211.86" fill="#000000" fill-rule="nonzero" fill-opacity="0.7" transform="matrix(1.00515 0 0 1 -1219.6 -1035.63)"/><path d="M541.735 1227.41C555.75 1227.41 561.264 1235.16 561.264 1249.18 561.264 1263.19 555.75 1270.95 541.735 1270.95 527.719 1270.95 522.205 1263.19 522.205 1249.18 522.205 1235.16 527.719 1227.41 541.735 1227.41M505.012 1249.18C505.012 1273.47 518.375 1283.28 541.735 1283.28 565.094 1283.28 578.456 1273.47 578.456 1249.18 578.456 1224.88 565.094 1215.07 541.735 1215.07 518.375 1215.07 505.012 1224.88 505.012 1249.18" fill="#000000" fill-rule="nonzero" fill-opacity="0.7" transform="matrix(1.00515 0 0 1 -1219.6 -1035.63)"/><path d="M596.557 1281.88C613.843 1281.88 625.332 1273.38 625.332 1257.49L625.332 1220.77C625.332 1218.34 623.375 1216.47 620.941 1216.47L612.441 1216.47C610.103 1216.47 608.141 1218.34 608.141 1220.77L608.141 1257.58C608.141 1265.9 604.496 1268.99 596.088 1268.99L592.818 1268.99C590.109 1268.99 587.679 1268.15 585.157 1268.15L583.661 1268.15C581.232 1268.15 579.362 1270.01 579.362 1272.44L579.362 1277.58C579.362 1279.92 581.232 1281.88 583.661 1281.88L596.557 1281.88" fill="#000000" fill-rule="nonzero" fill-opacity="0.7" transform="matrix(1.00515 0 0 1 -1219.6 -1035.63)"/><path d="M670.534 1227.41C684.551 1227.41 690.063 1235.16 690.063 1249.18 690.063 1263.19 684.551 1270.95 670.534 1270.95 656.516 1270.95 651.005 1263.19 651.005 1249.18 651.005 1235.16 656.516 1227.41 670.534 1227.41M633.814 1249.18C633.814 1273.47 647.175 1283.28 670.534 1283.28 693.892 1283.28 707.26 1273.47 707.26 1249.18 707.26 1224.88 693.892 1215.07 670.534 1215.07 647.175 1215.07 633.814 1224.88 633.814 1249.18" fill="#000000" fill-rule="nonzero" fill-opacity="0.7" transform="matrix(1.00515 0 0 1 -1219.6 -1035.63)"/><path d="M520.554 1194.51C518.436 1194.51 516.817 1196.13 516.817 1198.25L516.817 1205.47C516.817 1207.59 518.436 1209.21 520.554 1209.21L562.914 1209.21C565.032 1209.21 566.651 1207.59 566.651 1205.47L566.651 1198.25C566.651 1196.13 565.032 1194.51 562.914 1194.51L520.554 1194.51" fill="#000000" fill-rule="nonzero" fill-opacity="0.7" transform="matrix(1.00515 0 0 1 -1219.6 -1035.63)"/><path d="M649.358 1194.51C647.241 1194.51 645.618 1196.13 645.618 1198.25L645.618 1205.47C645.618 1207.59 647.241 1209.21 649.358 1209.21L691.715 1209.21C693.833 1209.21 695.455 1207.59 695.455 1205.47L695.455 1198.25C695.455 1196.13 693.833 1194.51 691.715 1194.51L649.358 1194.51" fill="#000000" fill-rule="nonzero" fill-opacity="0.7" transform="matrix(1.00515 0 0 1 -1219.6 -1035.63)"/></g></g><g clip-path="url(#clip11)"><g clip-path="url(#clip12)"><path d="M160.149 0C145.042 0 132.824 12.2741 132.824 27.3813 132.824 42.4884 145.042 54.7057 160.149 54.7057 175.256 54.7057 187.53 42.4884 187.53 27.3813 187.53 12.2741 175.256 0 160.149 0ZM206.351 25.9072C201.185 26.1381 197.183 30.5141 197.414 35.6813 197.59 39.6394 200.238 43.058 204.028 44.2181 248.316 59.4484 279.392 95.4261 290.252 137.53L205.5 137.53C204.862 137.53 204.366 138.025 204.366 138.663L204.366 203.46C204.366 204.1 204.862 204.594 205.5 204.594L290.14 204.594C289.28 207.909 288.317 211.218 287.19 214.515L287.19 214.742C263.054 284.928 186.853 322.099 116.668 297.962 72.3682 282.728 41.2595 246.714 30.3858 204.594L115.194 204.594C115.833 204.594 116.327 204.1 116.327 203.46L116.327 138.663C116.327 138.025 115.833 137.53 115.194 137.53L30.4424 137.53C31.3195 134.152 32.2929 130.795 33.4471 127.439 46.5474 89.3436 76.1014 59.0275 113.89 45.0686 118.956 44.0226 122.214 39.0684 121.168 34.0029 120.122 28.9373 115.168 25.6788 110.102 26.7248 109.165 26.9183 108.263 27.2545 107.427 27.7213 64.7186 43.4977 31.0866 77.4967 15.9865 120.41L15.6464 121.43C13.8093 126.772 12.3292 132.141 11.1112 137.53L1.1338 137.53C0.494583 137.53 0 138.025 0 138.663L0 203.46C0 204.1 0.494583 204.594 1.1338 204.594L11.1112 204.594C22.4458 254.635 58.6718 297.884 110.659 315.762 190.417 343.191 277.565 300.509 304.992 220.751 306.835 215.389 308.364 210.001 309.583 204.594L319.56 204.594C320.201 204.594 320.694 204.1 320.694 203.46L320.694 138.663C320.694 138.025 320.201 137.53 319.56 137.53L309.471 137.53C298.118 87.517 261.944 44.2872 209.979 26.4175 208.815 26.0102 207.583 25.8368 206.351 25.9072ZM120.636 130.217C119.997 130.217 119.446 130.711 119.446 131.35L119.446 210.774C119.446 211.413 119.997 211.964 120.636 211.964L200.058 211.964C200.699 211.964 201.192 211.413 201.192 210.774L201.192 131.35C201.192 130.711 200.699 130.217 200.058 130.217L120.636 130.217Z" fill="#000000" fill-rule="nonzero" fill-opacity="0.7" transform="matrix(1.00195 0 0 1 -993.721 -43.912)"/><path d="M598.842 1449C614.638 1449 626.325 1452.29 626.325 1471.05 626.325 1489.81 614.638 1493.11 598.842 1493.11L569.546 1493.11 569.546 1449 598.842 1449M546.67 1426.29C542.556 1426.29 539.263 1429.59 539.263 1433.86L539.263 1533.92C539.263 1538.03 542.719 1541.49 546.834 1541.49L561.976 1541.49C566.253 1541.49 569.546 1538.03 569.546 1533.92L569.546 1515.82 608.052 1515.82C638.661 1515.82 656.606 1502 656.606 1471.05 656.606 1440.12 638.661 1426.29 608.052 1426.29L546.67 1426.29" fill="#000000" fill-rule="nonzero" fill-opacity="0.7" transform="matrix(1.00195 0 0 1 -1157.33 -1433)"/><path d="M664.295 1479.78C664.295 1511.75 729.588 1503.73 729.588 1518.04 729.588 1522.36 726.378 1524.95 718.975 1524.95L697.869 1524.95C691.695 1524.95 687.006 1522.98 685.031 1518.78 683.057 1514.71 680.342 1513.1 676.882 1513.1L669.724 1513.1C668.119 1513.1 663.555 1514.21 663.555 1519.77 663.555 1532.97 680.217 1541.98 695.769 1541.98L714.036 1541.98C743.66 1541.98 752.298 1531.62 752.298 1516.81 752.298 1484.59 687.006 1492.86 687.006 1478.55 687.006 1474.23 690.215 1471.63 697.619 1471.63L715.766 1471.63C721.934 1471.63 726.623 1473.61 728.603 1477.81 730.572 1481.87 733.292 1483.48 736.746 1483.48L743.905 1483.48C745.51 1483.48 750.079 1482.37 750.079 1476.82 750.079 1463.61 733.412 1454.6 717.859 1454.6L702.558 1454.6C672.933 1454.6 664.295 1464.97 664.295 1479.78" fill="#000000" fill-rule="nonzero" fill-opacity="0.7" transform="matrix(1.00195 0 0 1 -1157.33 -1433)"/><path d="M839.842 1455.09 770.356 1455.09C767.272 1455.09 764.677 1457.56 764.677 1460.65L764.677 1535.69C764.677 1538.9 767.147 1541.49 770.356 1541.49L839.598 1541.49C842.807 1541.49 845.277 1538.9 845.277 1535.81L845.277 1530.01C845.277 1526.93 842.807 1524.46 839.723 1524.46L787.388 1524.46 787.388 1506.68 832.564 1506.68C835.648 1506.68 838.243 1504.1 838.243 1501.01L838.243 1495.33C838.243 1492.24 835.648 1489.65 832.564 1489.65L787.388 1489.65 787.388 1472.13 839.842 1472.13C842.932 1472.13 845.521 1469.66 845.521 1466.45L845.521 1460.77C845.521 1457.56 842.932 1455.09 839.842 1455.09" fill="#000000" fill-rule="nonzero" fill-opacity="0.7" transform="matrix(1.00195 0 0 1 -1157.33 -1433)"/><path d="M893.926 1524.95C882.937 1524.95 878.004 1519.28 878.004 1507.42L878.004 1460.77C878.004 1457.56 875.409 1455.09 872.324 1455.09L861.091 1455.09C857.882 1455.09 855.293 1457.56 855.293 1460.77L855.293 1507.31C855.293 1529.15 868.131 1541.98 893.305 1541.98L904.168 1541.98C929.349 1541.98 942.187 1529.15 942.187 1507.31L942.187 1460.77C942.187 1457.56 939.592 1455.09 936.382 1455.09L925.155 1455.09C922.065 1455.09 919.476 1457.56 919.476 1460.77L919.476 1507.42C919.476 1519.28 914.536 1524.95 903.554 1524.95L893.926 1524.95" fill="#000000" fill-rule="nonzero" fill-opacity="0.7" transform="matrix(1.00195 0 0 1 -1157.33 -1433)"/><path d="M963.937 1455.09C960.727 1455.09 958.258 1457.68 958.258 1460.89L958.258 1535.94C958.258 1539.02 960.853 1541.49 963.937 1541.49L997.63 1541.49C1032.81 1541.49 1047.62 1527.79 1047.62 1498.29 1047.62 1468.79 1032.81 1455.09 997.63 1455.09L963.937 1455.09M997.016 1472.13C1019.11 1472.13 1024.91 1479.78 1024.91 1498.29 1024.91 1516.81 1019.11 1524.46 997.016 1524.46L980.968 1524.46 980.968 1472.13 997.016 1472.13" fill="#000000" fill-rule="nonzero" fill-opacity="0.7" transform="matrix(1.00195 0 0 1 -1157.33 -1433)"/><path d="M1103.56 1469.53C1122.08 1469.53 1129.35 1479.78 1129.35 1498.29 1129.35 1516.81 1122.08 1527.05 1103.56 1527.05 1085.04 1527.05 1077.76 1516.81 1077.76 1498.29 1077.76 1479.78 1085.04 1469.53 1103.56 1469.53M1055.05 1498.29C1055.05 1530.39 1072.7 1543.34 1103.56 1543.34 1134.42 1543.34 1152.07 1530.39 1152.07 1498.29 1152.07 1466.2 1134.42 1453.24 1103.56 1453.24 1072.7 1453.24 1055.05 1466.2 1055.05 1498.29" fill="#000000" fill-rule="nonzero" fill-opacity="0.7" transform="matrix(1.00195 0 0 1 -1157.33 -1433)"/><path d="M1075.58 1426.08C1072.78 1426.08 1070.65 1428.23 1070.65 1431.02L1070.65 1440.57C1070.65 1443.37 1072.78 1445.5 1075.58 1445.5L1131.54 1445.5C1134.34 1445.5 1136.47 1443.37 1136.47 1440.57L1136.47 1431.02C1136.47 1428.23 1134.34 1426.08 1131.54 1426.08L1075.58 1426.08" fill="#000000" fill-rule="nonzero" fill-opacity="0.7" transform="matrix(1.00195 0 0 1 -1157.33 -1433)"/><path d="M546.834 1578.08C542.556 1578.08 539.263 1581.54 539.263 1585.82L539.263 1685.88C539.263 1689.99 542.719 1693.28 546.834 1693.28L591.763 1693.28C638.661 1693.28 658.413 1675.01 658.413 1635.68 658.413 1596.35 638.661 1578.08 591.763 1578.08L546.834 1578.08M590.939 1600.79C620.401 1600.79 628.132 1611 628.132 1635.68 628.132 1660.37 620.401 1670.57 590.939 1670.57L569.546 1670.57 569.546 1600.79 590.939 1600.79" fill="#000000" fill-rule="nonzero" fill-opacity="0.7" transform="matrix(1.00195 0 0 1 -1157.33 -1433)"/><path d="M715.599 1621.32C734.11 1621.32 741.393 1631.57 741.393 1650.08 741.393 1668.59 734.11 1678.84 715.599 1678.84 697.082 1678.84 689.798 1668.59 689.798 1650.08 689.798 1631.57 697.082 1621.32 715.599 1621.32M667.087 1650.08C667.087 1682.17 684.739 1695.14 715.599 1695.14 746.452 1695.14 764.104 1682.17 764.104 1650.08 764.104 1617.99 746.452 1605.03 715.599 1605.03 684.739 1605.03 667.087 1617.99 667.087 1650.08" fill="#000000" fill-rule="nonzero" fill-opacity="0.7" transform="matrix(1.00195 0 0 1 -1157.33 -1433)"/><path d="M788.014 1693.28C810.85 1693.28 826.026 1682.05 826.026 1661.07L826.026 1612.56C826.026 1609.35 823.437 1606.88 820.228 1606.88L808.995 1606.88C805.91 1606.88 803.315 1609.35 803.315 1612.56L803.315 1661.19C803.315 1672.17 798.501 1676.25 787.393 1676.25L783.074 1676.25C779.495 1676.25 776.286 1675.14 772.957 1675.14L770.976 1675.14C767.773 1675.14 765.303 1677.61 765.303 1680.82L765.303 1687.6C765.303 1690.69 767.773 1693.28 770.976 1693.28L788.014 1693.28" fill="#000000" fill-rule="nonzero" fill-opacity="0.7" transform="matrix(1.00195 0 0 1 -1157.33 -1433)"/><path d="M885.735 1621.32C904.246 1621.32 911.53 1631.57 911.53 1650.08 911.53 1668.59 904.246 1678.84 885.735 1678.84 867.218 1678.84 859.94 1668.59 859.94 1650.08 859.94 1631.57 867.218 1621.32 885.735 1621.32M837.229 1650.08C837.229 1682.17 854.881 1695.14 885.735 1695.14 916.594 1695.14 934.24 1682.17 934.24 1650.08 934.24 1617.99 916.594 1605.03 885.735 1605.03 854.881 1605.03 837.229 1617.99 837.229 1650.08" fill="#000000" fill-rule="nonzero" fill-opacity="0.7" transform="matrix(1.00195 0 0 1 -1157.33 -1433)"/><path d="M687.62 1577.87C684.823 1577.87 682.681 1580.01 682.681 1582.81L682.681 1592.36C682.681 1595.15 684.823 1597.29 687.62 1597.29L743.577 1597.29C746.369 1597.29 748.51 1595.15 748.51 1592.36L748.51 1582.81C748.51 1580.01 746.369 1577.87 743.577 1577.87L687.62 1577.87" fill="#000000" fill-rule="nonzero" fill-opacity="0.7" transform="matrix(1.00195 0 0 1 -1157.33 -1433)"/><path d="M857.757 1577.87C854.959 1577.87 852.823 1580.01 852.823 1582.81L852.823 1592.36C852.823 1595.15 854.959 1597.29 857.757 1597.29L913.713 1597.29C916.511 1597.29 918.647 1595.15 918.647 1592.36L918.647 1582.81C918.647 1580.01 916.511 1577.87 913.713 1577.87L857.757 1577.87" fill="#000000" fill-rule="nonzero" fill-opacity="0.7" transform="matrix(1.00195 0 0 1 -1157.33 -1433)"/></g></g><g clip-path="url(#clip13)"><g clip-path="url(#clip14)"><path d="M118.258 0C107.103 0 98.0811 9.06353 98.0811 20.2191 98.0811 31.3746 107.103 40.3962 118.258 40.3962 129.414 40.3962 138.477 31.3746 138.477 20.2191 138.477 9.06353 129.414 0 118.258 0ZM152.375 19.1306C148.56 19.3011 145.605 22.5324 145.775 26.348 145.906 29.2708 147.861 31.7952 150.659 32.6519 183.363 43.8983 206.31 70.4648 214.33 101.556L151.747 101.556C151.275 101.556 150.91 101.921 150.91 102.393L150.91 150.24C150.91 150.713 151.275 151.078 151.747 151.078L214.247 151.078C213.612 153.526 212.901 155.969 212.069 158.403L212.069 158.571C194.246 210.399 137.978 237.846 86.1506 220.024 53.4387 208.774 30.4672 182.181 22.4377 151.078L85.0622 151.078C85.5344 151.078 85.8996 150.713 85.8996 150.24L85.8996 102.393C85.8996 101.921 85.5344 101.556 85.0622 101.556L22.4795 101.556C23.1271 99.0619 23.846 96.5826 24.6982 94.1045 34.3719 65.9741 56.1953 43.5875 84.0993 33.2798 87.8398 32.5075 90.2462 28.8491 89.4739 25.1086 88.7011 21.3681 85.0431 18.962 81.3026 19.7343 80.6104 19.8772 79.944 20.1255 79.3271 20.4702 47.7902 32.1199 22.9552 57.2258 11.8049 88.9133L11.5537 89.667C10.1971 93.6119 9.10424 97.5766 8.20485 101.556L0.837227 101.556C0.365213 101.556 0 101.921 0 102.393L0 150.24C0 150.713 0.365213 151.078 0.837227 151.078L8.20485 151.078C16.5746 188.029 43.3248 219.966 81.7132 233.167 140.609 253.422 204.961 221.904 225.214 163.009 226.575 159.049 227.704 155.07 228.604 151.078L235.972 151.078C236.445 151.078 236.809 150.713 236.809 150.24L236.809 102.393C236.809 101.921 236.445 101.556 235.972 101.556L228.521 101.556C220.138 64.6251 193.426 32.7029 155.055 19.5074 154.195 19.2067 153.285 19.0786 152.375 19.1306ZM89.0812 96.1552C88.6091 96.1552 88.202 96.521 88.202 96.9926L88.202 155.641C88.202 156.113 88.6091 156.52 89.0812 156.52L147.729 156.52C148.201 156.52 148.565 156.113 148.565 155.641L148.565 96.9926C148.565 96.521 148.201 96.1552 147.729 96.1552L89.0812 96.1552Z" fill="#000000" fill-rule="nonzero" fill-opacity="0.7" transform="matrix(1 0 0 1.0244 -862.988 31.5954)"/><path d="M442.2 1069.98C453.866 1069.98 462.494 1072.41 462.494 1086.27 462.494 1100.12 453.866 1102.55 442.2 1102.55L420.568 1102.55 420.568 1069.98 442.2 1069.98M403.676 1053.21C400.638 1053.21 398.207 1055.64 398.207 1058.8L398.207 1132.69C398.207 1135.73 400.759 1138.28 403.797 1138.28L414.978 1138.28C418.137 1138.28 420.568 1135.73 420.568 1132.69L420.568 1119.32 449.005 1119.32C471.607 1119.32 484.854 1109.11 484.854 1086.27 484.854 1063.42 471.607 1053.21 449.005 1053.21L403.676 1053.21" fill="#000000" fill-rule="nonzero" fill-opacity="0.7" transform="matrix(1 0 0 1.0244 -983.566 -1019.17)"/><path d="M490.532 1092.71C490.532 1116.31 538.747 1110.39 538.747 1120.96 538.747 1124.16 536.378 1126.07 530.91 1126.07L515.324 1126.07C510.767 1126.07 507.303 1124.61 505.845 1121.51 504.386 1118.5 502.382 1117.32 499.829 1117.32L494.543 1117.32C493.359 1117.32 489.986 1118.14 489.986 1122.24 489.986 1131.99 502.291 1138.64 513.774 1138.64L527.263 1138.64C549.138 1138.64 555.517 1130.99 555.517 1120.05 555.517 1096.27 507.303 1102.37 507.303 1091.79 507.303 1088.61 509.673 1086.69 515.141 1086.69L528.54 1086.69C533.097 1086.69 536.56 1088.15 538.018 1091.25 539.476 1094.26 541.481 1095.44 544.033 1095.44L549.32 1095.44C550.505 1095.44 553.877 1094.62 553.877 1090.52 553.877 1080.77 541.572 1074.11 530.088 1074.11L518.788 1074.11C496.913 1074.11 490.532 1081.77 490.532 1092.71" fill="#000000" fill-rule="nonzero" fill-opacity="0.7" transform="matrix(1 0 0 1.0244 -983.566 -1019.17)"/><path d="M620.167 1074.48 568.851 1074.48C566.572 1074.48 564.658 1076.3 564.658 1078.58L564.658 1133.99C564.658 1136.37 566.481 1138.28 568.851 1138.28L619.981 1138.28C622.354 1138.28 624.177 1136.37 624.177 1134.09L624.177 1129.8C624.177 1127.53 622.354 1125.7 620.071 1125.7L581.43 1125.7 581.43 1112.58 614.787 1112.58C617.064 1112.58 618.983 1110.66 618.983 1108.39L618.983 1104.19C618.983 1101.91 617.064 1100 614.787 1100L581.43 1100 581.43 1087.05 620.167 1087.05C622.444 1087.05 624.357 1085.23 624.357 1082.86L624.357 1078.67C624.357 1076.3 622.444 1074.48 620.167 1074.48" fill="#000000" fill-rule="nonzero" fill-opacity="0.7" transform="matrix(1 0 0 1.0244 -983.566 -1019.17)"/><path d="M660.1 1126.07C651.983 1126.07 648.343 1121.87 648.343 1113.12L648.343 1078.67C648.343 1076.3 646.424 1074.48 644.147 1074.48L635.851 1074.48C633.484 1074.48 631.571 1076.3 631.571 1078.67L631.571 1113.03C631.571 1129.16 641.051 1138.64 659.64 1138.64L667.661 1138.64C686.256 1138.64 695.736 1129.16 695.736 1113.03L695.736 1078.67C695.736 1076.3 693.823 1074.48 691.45 1074.48L683.16 1074.48C680.877 1074.48 678.964 1076.3 678.964 1078.67L678.964 1113.12C678.964 1121.87 675.318 1126.07 667.207 1126.07L660.1 1126.07" fill="#000000" fill-rule="nonzero" fill-opacity="0.7" transform="matrix(1 0 0 1.0244 -983.566 -1019.17)"/><path d="M711.796 1074.48C709.424 1074.48 707.6 1076.39 707.6 1078.76L707.6 1134.18C707.6 1136.46 709.519 1138.28 711.796 1138.28L736.679 1138.28C762.656 1138.28 773.588 1128.17 773.588 1106.38 773.588 1084.6 762.656 1074.48 736.679 1074.48L711.796 1074.48M736.219 1087.05C752.537 1087.05 756.822 1092.71 756.822 1106.38 756.822 1120.05 752.537 1125.7 736.219 1125.7L724.372 1125.7 724.372 1087.05 736.219 1087.05" fill="#000000" fill-rule="nonzero" fill-opacity="0.7" transform="matrix(1 0 0 1.0244 -983.566 -1019.17)"/><path d="M814.897 1085.14C828.572 1085.14 833.946 1092.71 833.946 1106.38 833.946 1120.05 828.572 1127.62 814.897 1127.62 801.227 1127.62 795.847 1120.05 795.847 1106.38 795.847 1092.71 801.227 1085.14 814.897 1085.14M779.075 1106.38C779.075 1130.08 792.112 1139.65 814.897 1139.65 837.682 1139.65 850.718 1130.08 850.718 1106.38 850.718 1082.68 837.682 1073.11 814.897 1073.11 792.112 1073.11 779.075 1082.68 779.075 1106.38" fill="#000000" fill-rule="nonzero" fill-opacity="0.7" transform="matrix(1 0 0 1.0244 -983.566 -1019.17)"/><path d="M794.24 1053.06C792.171 1053.06 790.593 1054.64 790.593 1056.7L790.593 1063.76C790.593 1065.82 792.171 1067.4 794.24 1067.4L835.56 1067.4C837.622 1067.4 839.206 1065.82 839.206 1063.76L839.206 1056.7C839.206 1054.64 837.622 1053.06 835.56 1053.06L794.24 1053.06" fill="#000000" fill-rule="nonzero" fill-opacity="0.7" transform="matrix(1 0 0 1.0244 -983.566 -1019.17)"/><path d="M403.797 1165.3C400.638 1165.3 398.207 1167.85 398.207 1171.01L398.207 1244.9C398.207 1247.94 400.759 1250.36 403.797 1250.36L436.974 1250.36C471.607 1250.36 486.191 1236.88 486.191 1207.84 486.191 1178.79 471.607 1165.3 436.974 1165.3L403.797 1165.3M436.366 1182.07C458.118 1182.07 463.829 1189.6 463.829 1207.84 463.829 1226.06 458.118 1233.6 436.366 1233.6L420.568 1233.6 420.568 1182.07 436.366 1182.07" fill="#000000" fill-rule="nonzero" fill-opacity="0.7" transform="matrix(1 0 0 1.0244 -983.566 -1019.17)"/><path d="M528.417 1197.23C542.087 1197.23 547.465 1204.79 547.465 1218.46 547.465 1232.14 542.087 1239.7 528.417 1239.7 514.745 1239.7 509.367 1232.14 509.367 1218.46 509.367 1204.79 514.745 1197.23 528.417 1197.23M492.597 1218.46C492.597 1242.16 505.63 1251.73 528.417 1251.73 551.201 1251.73 564.235 1242.16 564.235 1218.46 564.235 1194.77 551.201 1185.2 528.417 1185.2 505.63 1185.2 492.597 1194.77 492.597 1218.46" fill="#000000" fill-rule="nonzero" fill-opacity="0.7" transform="matrix(1 0 0 1.0244 -983.566 -1019.17)"/><path d="M581.889 1250.36C598.75 1250.36 609.964 1242.07 609.964 1226.58L609.964 1190.76C609.964 1188.39 608.051 1186.56 605.678 1186.56L597.384 1186.56C595.106 1186.56 593.191 1188.39 593.191 1190.76L593.191 1226.67C593.191 1234.78 589.637 1237.79 581.433 1237.79L578.244 1237.79C575.601 1237.79 573.232 1236.97 570.771 1236.97L569.312 1236.97C566.942 1236.97 565.119 1238.79 565.119 1241.16L565.119 1246.17C565.119 1248.45 566.942 1250.36 569.312 1250.36L581.889 1250.36" fill="#000000" fill-rule="nonzero" fill-opacity="0.7" transform="matrix(1 0 0 1.0244 -983.566 -1019.17)"/><path d="M654.051 1197.23C667.721 1197.23 673.1 1204.79 673.1 1218.46 673.1 1232.14 667.721 1239.7 654.051 1239.7 640.381 1239.7 635.002 1232.14 635.002 1218.46 635.002 1204.79 640.381 1197.23 654.051 1197.23M618.23 1218.46C618.23 1242.16 631.266 1251.73 654.051 1251.73 676.836 1251.73 689.872 1242.16 689.872 1218.46 689.872 1194.77 676.836 1185.2 654.051 1185.2 631.266 1185.2 618.23 1194.77 618.23 1218.46" fill="#000000" fill-rule="nonzero" fill-opacity="0.7" transform="matrix(1 0 0 1.0244 -983.566 -1019.17)"/><path d="M507.756 1165.15C505.691 1165.15 504.112 1166.72 504.112 1168.79L504.112 1175.84C504.112 1177.91 505.691 1179.49 507.756 1179.49L549.075 1179.49C551.141 1179.49 552.72 1177.91 552.72 1175.84L552.72 1168.79C552.72 1166.72 551.141 1165.15 549.075 1165.15L507.756 1165.15" fill="#000000" fill-rule="nonzero" fill-opacity="0.7" transform="matrix(1 0 0 1.0244 -983.566 -1019.17)"/><path d="M633.394 1165.15C631.326 1165.15 629.748 1166.72 629.748 1168.79L629.748 1175.84C629.748 1177.91 631.326 1179.49 633.394 1179.49L674.708 1179.49C676.776 1179.49 678.354 1177.91 678.354 1175.84L678.354 1168.79C678.354 1166.72 676.776 1165.15 674.708 1165.15L633.394 1165.15" fill="#000000" fill-rule="nonzero" fill-opacity="0.7" transform="matrix(1 0 0 1.0244 -983.566 -1019.17)"/></g></g></g></g></g></g></g></g></g></svg>