<svg width="1802" height="2008" xmlns="http://www.w3.org/2000/svg" xmlns:xlink="http://www.w3.org/1999/xlink" xml:space="preserve" overflow="hidden"><g transform="translate(-1365 -256)"><g><path d="M2174.25 1285C2164.77 1309.17 2136.64 1363.79 2093 1449.29 2190.26 1561.75 2264.43 1612.22 2313.77 1615 2328.94 1541.17 2379.52 1515.32 2389 1465.99 2355.79 1416.67 2276.24 1398.44 2174.25 1285Z" fill="#444444" fill-rule="evenodd" fill-opacity="1"/><path d="M2186 1279.75C2186 1272.63 2190.03 1254.81 2195.97 1237 2247.48 1244.84 2332.7 1266.93 2374 1281.18 2372.58 1325.35 2353.11 1372.14 2341.24 1408 2265.28 1358.36 2225.88 1318.22 2186 1279.75Z" fill="#444444" fill-rule="evenodd" fill-opacity="1"/><path d="M2102.86 1479C2065.91 1566.19 1960.39 1737.13 1791 1912.12 1862.08 1987.75 1874.29 1995.56 1920.63 2034 2057.14 1890.56 2161.41 1714.94 2240 1606.5 2159.09 1544.59 2154.83 1528.69 2102.86 1479Z" fill="#444444" fill-rule="evenodd" fill-opacity="1"/><path d="M2382.24 1313.05C2438.97 1311.96 2492.46 1329.03 2602.58 1388.51 2712.71 1447.99 2877.2 1572.85 3043 1669.92 3011.48 1744.01 3000.36 1742.97 2957.88 1825 2442.92 1529.16 2471.22 1427.43 2389.73 1447.21 2392.47 1448.3 2366.62 1422.78 2351 1414.76 2360.96 1385.05 2381.42 1345.31 2382.24 1313.05Z" fill="#444444" fill-rule="evenodd" fill-opacity="1"/><path d="M2055.28 1489C2100.65 1416.3 2110.51 1383.98 2140 1322.87 2015.19 1275.43 1614.16 1200.54 1588.57 1206.31 1579.47 1234.45 1533.35 1271.34 1486 1350.56 1650.03 1384.3 1715.79 1393.89 2055.28 1489Z" fill="#444444" fill-rule="evenodd" fill-opacity="1"/><path d="M2447 1305.37C2689.33 1222.97 2807.48 1245.02 3097 1062 3068.53 1153.38 3041.04 1198.1 2995.34 1271.21 2851.86 1360.74 2848.03 1338.25 2681.31 1420 2591.07 1367.29 2551.48 1333.36 2447 1305.37Z" fill="#444444" fill-rule="evenodd" fill-opacity="1"/><path d="M2348.59 2212C2640.25 2062.67 2769.23 1555.43 2756.09 1229.93 2742.95 904.436 2581.36 253.965 2269.74 259.029 1958.12 264.094 1794.28 904.643 1783.09 1229.37 1771.9 1554.1 1842.39 2029.42 2202.59 2207.4 1836.18 1979.45 1795.38 1548.29 1805.45 1229.79 1815.53 911.283 1965.72 293.807 2263.03 296.373 2560.35 298.939 2724.76 910.44 2739.02 1229.71 2753.28 1548.98 2624.33 2052.72 2348.59 2212Z" fill="#444444" fill-rule="evenodd" fill-opacity="1"/><path d="M2220 2216C2220 2191.15 2240.15 2171 2265 2171 2289.85 2171 2310 2191.15 2310 2216 2310 2240.85 2289.85 2261 2265 2261 2240.15 2261 2220 2240.85 2220 2216Z" fill="#444444" fill-rule="evenodd" fill-opacity="1"/><path d="M3053.85 715.833C2778.66 537.748 2275.01 679.515 1999.8 853.589 1724.59 1027.66 1242.32 1492.8 1402.59 1760.28 1562.87 2027.76 2199.36 1849.57 2486.08 1696.96 2772.8 1544.36 3149.01 1245.7 3122.9 844.638 3108.86 1276.06 2756.02 1526.91 2475.25 1677.38 2194.48 1827.84 1584.79 2006.33 1438.28 1747.42 1291.76 1488.52 1738.89 1040.42 2008.15 868.49 2277.41 696.558 2778.01 556.512 3053.85 715.833Z" fill="#444444" fill-rule="evenodd" fill-opacity="1"/><path d="M3121.52 824.981C3099.98 837.417 3072.44 830.037 3060 808.498 3047.57 786.958 3054.95 759.416 3076.49 746.981 3098.02 734.545 3125.57 741.925 3138 763.464 3150.44 785.003 3143.06 812.545 3121.52 824.981Z" fill="#444444" fill-rule="evenodd" fill-opacity="1"/><path d="M1406.22 851.612C1389.1 1178.94 1763.16 1544.79 2051.29 1696.52 2339.42 1848.24 2983.11 2034.3 3135.02 1761.97 3286.93 1489.65 2815.05 1026.83 2539.78 854.425 2264.52 682.016 1818.03 504.868 1483.42 727.52 1864.36 524.53 2257.76 705.253 2528.21 873.576 2798.65 1041.9 3257.42 1481.34 3106.08 1737.46 2954.74 1993.57 2343.35 1829.49 2060.04 1681.85 1776.73 1534.21 1405.69 1170.15 1406.22 851.612Z" fill="#444444" fill-rule="evenodd" fill-opacity="1"/><path d="M1467.07 738.522C1488.59 750.989 1495.93 778.542 1483.47 800.063 1471 821.583 1443.45 828.923 1421.93 816.455 1400.4 803.988 1393.07 776.435 1405.53 754.914 1418 733.393 1445.55 726.054 1467.07 738.522Z" fill="#444444" fill-rule="evenodd" fill-opacity="1"/></g></g></svg>